# xmcd
#
# Track frame offsets:
#	150
#	18914
#	52366
#	70856
#	83658
#	98793
#	116662
#	142446
#	156342
#	170962
#	193269
#	209580
#	224227
#	236574
#	253016
#	270495
#
# Disc length: 3810 seconds
#
# Revision: 1
# Processed by: cddbd v1.5.2PL0 Copyright (c) Steve Scherf et al.
# Submitted via: audiograbber 1.83.01
#
DISCID=070ee010
DTITLE=—борник - Together CD1
DYEAR=1900
DGENRE=
TTITLE0=Leo Sayer - When I Need You
TTITLE1=Moody Blues - Nights In White Satin
TTITLE2=Procol Harum - A Winter Shade Of Pale
TTITLE3=Bobby Vinton - Blue Velvet
TTITLE4=Nilsson - Without You
TTITLE5=Bobby Goldsboro - Honey
TTITLE6=Kool and The Gang - Cherish
TTITLE7=The Walker Brothers - The Sun Ain`t Gonna Shine Anymore
TTITLE8=America - Only In Your Heart
TTITLE9=Eric Carmen - All By My Self
TTITLE10=Olivia Newton-John and John Travolta - Summer Nights
TTITLE11=Mamas and Papas - Dream A Little Dream Of Me
TTITLE12=The Temptation - My Girl
TTITLE13=Righteous Brothers - Unchained Melody
TTITLE14=Nazareth - Love Hurts
TTITLE15=Barry White - Your`e The First, The Last, My Everything
EXTD=
EXTT0=
EXTT1=
EXTT2=
EXTT3=
EXTT4=
EXTT5=
EXTT6=
EXTT7=
EXTT8=
EXTT9=
EXTT10=
EXTT11=
EXTT12=
EXTT13=
EXTT14=
EXTT15=
PLAYORDER=
